HIERARCHY
ROOT Hips
{
	OFFSET 0.00000 0.00000 0.00000
	CHANNELS 6 Xposition Yposition Zposition Zrotation Yrotation Xrotation 
	JOINT LHipJoint
	{
		OFFSET 0 0 0
		CHANNELS 3 Zrotation Yrotation Xrotation
		JOINT LeftHip
		{
			OFFSET 1.44361 -1.63093 0.70831
			CHANNELS 3 Zrotation Yrotation Xrotation
			JOINT LeftKnee
			{
				OFFSET 2.20103 -6.04728 0.00000
				CHANNELS 3 Zrotation Yrotation Xrotation
				JOINT LeftAnkle
				{
					OFFSET 2.54154 -6.98283 0.00000
					CHANNELS 3 Zrotation Yrotation Xrotation
					JOINT LeftToe
					{
						OFFSET 0.05971 -0.16406 1.77582
						CHANNELS 3 Zrotation Yrotation Xrotation
						End Site
						{
							OFFSET 0.00000 -0.00000 0.90832
						}
					}
				}
			}
		}
	}
	JOINT RHipJoint
	{
		OFFSET 0 0 0
		CHANNELS 3 Zrotation Yrotation Xrotation
		JOINT RightHip
		{
			OFFSET -1.65838 -1.63093 0.70830
			CHANNELS 3 Zrotation Yrotation Xrotation
			JOINT RightKnee
			{
				OFFSET -2.26926 -6.23475 0.00000
				CHANNELS 3 Zrotation Yrotation Xrotation
				JOINT RightAnkle
				{
					OFFSET -2.34808 -6.45129 0.00000
					CHANNELS 3 Zrotation Yrotation Xrotation
					JOINT RightToe
					{
						OFFSET -0.18633 -0.51195 1.68539
						CHANNELS 3 Zrotation Yrotation Xrotation
						End Site
						{
							OFFSET -0.00000 -0.00000 0.88927
						}
					}
				}
			}
		}
	}
	JOINT lowerback
	{
		OFFSET 0 0 0
		CHANNELS 3 Zrotation Yrotation Xrotation
		JOINT Chest
		{
			OFFSET -0.10393 2.01691 0.06920
			CHANNELS 3 Zrotation Yrotation Xrotation
			JOINT Chest2
			{
				OFFSET 0.04092 2.01302 -0.05283
				CHANNELS 3 Zrotation Yrotation Xrotation
				JOINT lowerneck
				{
					OFFSET 0 0 0
					CHANNELS 3 Zrotation Yrotation Xrotation
					JOINT Neck
					{
						OFFSET -0.02870 1.58978 -0.03113
						CHANNELS 3 Zrotation Yrotation Xrotation
						JOINT Head
						{
							OFFSET 0.11532 1.54326 -0.29195
							CHANNELS 3 Zrotation Yrotation Xrotation
							End Site
							{
								OFFSET 0.04056 1.59999 -0.09535
							}
						}
					}
				}
				JOINT LeftCollar
				{
					OFFSET 0 0 0
					CHANNELS 3 Zrotation Yrotation Xrotation
					JOINT LeftShoulder
					{
						OFFSET 3.30641 1.15764 0.01104
CHANNELS 3 Zrotation Xrotation Yrotation
						JOINT LeftElbow
						{
OFFSET 0 -4.632080 0.000000
CHANNELS 3 Zrotation Xrotation Yrotation
							JOINT LeftWrist
							{
OFFSET 0 -3.419240 -0.000000
CHANNELS 3 Zrotation Xrotation Yrotation
								JOINT lhand
								{
									OFFSET 0 0 0
CHANNELS 3 Zrotation Xrotation Yrotation
									JOINT LFingers
									{
OFFSET 0 -0.625370 -0.000000
CHANNELS 3 Zrotation Xrotation Yrotation
										End Site
										{
OFFSET 0 -0.504190 -0.000000
										}
									}
								}
								JOINT LThumb
								{
OFFSET 0 0.000000 0.000000
CHANNELS 3 Zrotation Xrotation Yrotation
									End Site
									{
OFFSET 0 -0.511890 0.511890
									}
								}
							}
						}
					}
				}
				JOINT RightCollar
				{
					OFFSET 0 0 0
					CHANNELS 3 Zrotation Yrotation Xrotation
					JOINT RightShoulder
					{
						OFFSET -3.78081 1.02180 -0.16609
CHANNELS 3 Zrotation Xrotation Yrotation
						JOINT RightElbow
						{
OFFSET 0 -4.406400 -0.000000
CHANNELS 3 Zrotation Xrotation Yrotation
							JOINT RightWrist
							{
OFFSET 0 -3.446750 0.000000
CHANNELS 3 Zrotation Xrotation Yrotation
								JOINT rhand
								{
									OFFSET 0 0 0
CHANNELS 3 Zrotation Xrotation Yrotation
									JOINT RFingers
									{
OFFSET 0 -0.513670 -0.000000
CHANNELS 3 Zrotation Xrotation Yrotation
										End Site
										{
OFFSET 0 -0.414140 -0.000000
										}
									}
								}
								JOINT RThumb
								{
OFFSET 0 0.000000 0.000000
CHANNELS 3 Zrotation Xrotation Yrotation
									End Site
									{
OFFSET 0 -0.420460 0.420460
									}
								}
							}
						}
					}
				}
			}
		}
	}
}
MOTION
Frames: 7
Frame Time: 0.008333333333333333
7.872948 22.139373 4.584044 175.955324 0.724480 -168.596785 0.000000 0.000000 0.000000 -27.829293 -12.133282 -8.915483 0.718661 5.416332 15.100095 2.103631 -7.995581 -26.061117 10.678922 -17.774267 -61.734299 0.000000 0.000000 0.000000 5.812559 17.499616 -51.032901 -4.447823 -12.715702 38.341717 -0.671831 -3.146024 -16.908126 -3.415122 11.338501 -33.430183 -10.579917 -0.913002 4.526488 1.040649 -1.231445 4.342813 7.075888 -0.803115 2.296331 -3.139977 -1.044250 -7.728361 4.816667 -0.425877 24.620857 2.231146 0.594321 8.977651 0.000000 0.000000 0.000000 1.807788 -8.324199 -33.902698 22.966895 -34.048225 7.121671 31.464738 4.372086 19.731671 0.000000 0.000000 0.000000 -7.125000 0.000000 0.000000 1.968852 7.181816 1.710711 0.000000 0.000000 0.000000 1.458521 10.608877 -42.335808 -7.621446 -12.937234 -0.865643 -17.996707 52.210241 36.779830 0.000000 0.000000 0.000000 7.125000 0.000000 0.000000 21.702246 66.948117 -11.701565
7.883419 22.133911 4.383883 175.982763 0.376678 -168.714369 0.000000 0.000000 0.000000 -27.930726 -11.685281 -7.788752 0.676104 5.257210 14.643675 2.115239 -8.188482 -26.128690 10.757146 -17.814109 -61.990212 0.000000 0.000000 0.000000 5.514562 17.538731 -51.410969 -3.796987 -11.875518 35.305931 -0.546981 -2.619370 -15.160552 -3.356173 11.248229 -33.124244 -10.552793 -0.951006 4.539377 1.135559 -1.462559 4.414760 7.162197 -1.004454 2.400245 -3.747494 -1.109041 -7.017716 5.631650 -0.614298 24.158897 2.581121 0.524537 8.693577 0.000000 0.000000 0.000000 2.019883 -8.546872 -34.572411 23.725540 -34.871019 7.549790 32.468605 3.768124 20.337685 0.000000 0.000000 0.000000 -7.125000 0.000000 0.000000 2.509686 6.278243 2.226154 0.000000 0.000000 0.000000 1.736419 11.018938 -45.366988 -7.389834 -12.558877 -0.814486 -17.699443 54.539599 37.200426 0.000000 0.000000 0.000000 7.125000 0.000000 0.000000 22.558713 67.239395 -12.329448
7.895220 22.125537 4.179796 175.971157 0.032027 -168.863481 0.000000 0.000000 0.000000 -28.064381 -11.242882 -6.664242 0.643411 5.131315 14.283489 2.128124 -8.327347 -26.207196 10.835234 -17.853458 -62.245367 0.000000 0.000000 0.000000 5.381575 17.401381 -51.643476 -3.295833 -11.152978 32.804591 -0.405809 -2.394744 -12.732957 -3.653385 11.558351 -34.355776 -10.496226 -0.796430 4.550177 1.184856 -1.683005 4.482608 7.179081 -1.300095 2.477540 -3.629420 -1.167620 -6.819490 5.655123 -0.729006 23.993345 2.552611 0.478014 8.605167 0.000000 0.000000 0.000000 2.279059 -8.831338 -35.254755 24.268128 -35.445936 7.861792 33.336899 3.013983 21.263928 0.000000 0.000000 0.000000 -7.125000 0.000000 0.000000 2.906588 5.031192 2.643414 0.000000 0.000000 0.000000 2.106014 11.481968 -48.398756 -7.160954 -12.183672 -0.765373 -17.496020 56.948023 37.437095 0.000000 0.000000 0.000000 7.125000 0.000000 0.000000 23.090583 67.390569 -12.710367
7.908226 22.114589 3.970835 175.808244 -0.363544 -169.017529 0.000000 0.000000 0.000000 -28.374237 -10.844167 -5.539482 0.618785 5.034137 14.005991 2.129911 -8.459761 -26.215210 10.911675 -17.891609 -62.494438 0.000000 0.000000 0.000000 5.158031 17.094754 -51.792751 -2.853383 -10.453268 30.457802 -0.018976 -3.821673 -6.178524 -5.855578 14.242194 -44.306502 -10.532187 -0.900944 4.563518 1.144930 -1.826547 4.500741 7.158349 -1.376273 2.518425 -3.444134 -1.282679 -6.398900 5.553363 -0.903031 23.722960 2.461339 0.395111 8.442688 0.000000 0.000000 0.000000 2.523065 -9.071429 -35.885819 24.688377 -35.883699 8.106626 33.240566 2.681127 21.985697 0.000000 0.000000 0.000000 -7.125000 0.000000 0.000000 2.727796 4.236986 2.522078 0.000000 0.000000 0.000000 2.558762 12.050106 -51.775437 -6.938297 -11.817522 -0.718984 -17.231455 59.651959 37.374316 0.000000 0.000000 0.000000 7.125000 0.000000 0.000000 23.318006 67.255430 -12.769981
7.924633 22.105300 3.763616 175.632885 -0.805414 -169.142538 0.000000 0.000000 0.000000 -28.650905 -10.567586 -4.528477 0.611667 5.005576 13.924388 2.134686 -8.617150 -26.242555 10.994753 -17.932497 -62.764334 0.000000 0.000000 0.000000 4.898725 16.829198 -51.832337 -2.617864 -10.047859 29.132974 -0.129227 -3.095322 -8.609502 -2.823258 10.260679 -29.977160 -10.604240 -1.035328 4.636266 1.161424 -2.019789 4.524266 7.220506 -1.479665 2.546118 -3.560201 -1.359073 -6.188643 5.640695 -1.003211 23.685892 2.500665 0.347886 8.397199 0.000000 0.000000 0.000000 2.635312 -9.460951 -36.299996 25.054113 -36.258985 8.322005 31.933013 2.934964 21.820582 0.000000 0.000000 0.000000 -7.125000 0.000000 0.000000 1.947709 4.734068 1.782271 0.000000 0.000000 0.000000 2.867637 12.439108 -55.481848 -6.723439 -11.463072 -0.675665 -17.108357 63.012947 37.365635 0.000000 0.000000 0.000000 7.125000 0.000000 0.000000 23.449264 67.210896 -12.821547
7.946153 22.097328 3.555313 175.599282 -1.261692 -169.237336 0.000000 0.000000 0.000000 -28.688679 -10.371798 -3.622976 0.618027 5.031239 13.997633 2.138144 -8.762920 -26.262154 11.082867 -17.975321 -63.050188 0.000000 0.000000 0.000000 5.001092 16.572938 -51.795313 -2.490017 -9.819142 28.393452 -0.035054 -4.148749 -7.070686 -2.500108 9.838020 -28.453908 -10.578459 -1.124551 4.674078 1.237254 -2.144090 4.552285 7.288783 -1.546650 2.582409 -3.798116 -1.436396 -6.077925 5.932063 -1.120278 23.754327 2.632326 0.308097 8.408412 0.000000 0.000000 0.000000 2.742214 -9.914303 -36.823163 25.133393 -36.339990 8.368826 31.354847 3.177878 21.514175 0.000000 0.000000 0.000000 -7.125000 0.000000 0.000000 1.636658 5.209383 1.482452 0.000000 0.000000 0.000000 3.158075 12.754985 -58.997081 -6.530812 -11.144409 -0.637924 -16.849776 66.024967 37.505217 0.000000 0.000000 0.000000 7.125000 0.000000 0.000000 23.925076 67.257535 -13.119211
7.968290 22.088744 3.332031 175.391252 -1.776719 -169.497528 0.000000 0.000000 0.000000 -28.968984 -10.120202 -2.427157 0.618943 5.034844 14.007938 2.122803 -8.912879 -26.163969 11.185792 -18.024679 -63.383281 0.000000 0.000000 0.000000 5.113108 16.110709 -51.407877 -2.481989 -9.805085 28.347833 0.061809 -5.363243 -4.978134 -2.716996 10.216830 -29.686815 -10.695834 -1.208581 4.692505 1.258607 -2.269132 4.660160 7.377208 -1.630580 2.719748 -3.907406 -1.531829 -5.996767 6.082423 -1.245040 23.884280 2.695495 0.265542 8.445944 0.000000 0.000000 0.000000 2.798080 -10.239355 -37.201434 25.085161 -36.290868 8.340285 31.272656 3.147339 21.754397 0.000000 0.000000 0.000000 -7.125000 0.000000 0.000000 1.549004 4.960533 1.409723 0.000000 0.000000 0.000000 3.413124 12.942294 -62.948478 -6.336048 -10.821323 -0.600855 -16.381509 69.428076 37.677090 0.000000 0.000000 0.000000 7.125000 0.000000 0.000000 24.683627 67.269029 -13.562076
